<svg xmlns="http://www.w3.org/2000/svg" viewBox="0 0 1100 620" width="1100" height="620" font-family="'Segoe UI', Arial, sans-serif">
  <defs>
    <marker id="arr" markerWidth="8" markerHeight="6" refX="8" refY="3" orient="auto">
      <polygon points="0 0,8 3,0 6" fill="#64748b"/>
    </marker>
    <marker id="arr-g" markerWidth="8" markerHeight="6" refX="8" refY="3" orient="auto">
      <polygon points="0 0,8 3,0 6" fill="#4ade80"/>
    </marker>
    <marker id="arr-b" markerWidth="8" markerHeight="6" refX="8" refY="3" orient="auto">
      <polygon points="0 0,8 3,0 6" fill="#60a5fa"/>
    </marker>
    <marker id="arr-o" markerWidth="8" markerHeight="6" refX="8" refY="3" orient="auto">
      <polygon points="0 0,8 3,0 6" fill="#fb923c"/>
    </marker>
  </defs>

  <!-- Background -->
  <rect width="1100" height="620" fill="#0f172a"/>
  <text x="550" y="28" font-size="16" font-weight="bold" fill="#f1f5f9" text-anchor="middle">SpaceBook — Architecture</text>

  <!-- ── FRONTEND ── -->
  <rect x="10" y="45" width="195" height="560" rx="8" fill="#1e3a5f" fill-opacity="0.4" stroke="#3b82f6" stroke-width="2"/>
  <text x="107" y="66" font-size="12" font-weight="bold" fill="#93c5fd" text-anchor="middle">FRONTEND</text>
  <text x="107" y="82" font-size="9" fill="#475569" text-anchor="middle">React · Vite · MUI</text>

  <!-- API Client -->
  <rect x="22" y="94" width="171" height="44" rx="5" fill="#1d4ed8" fill-opacity="0.7" stroke="#60a5fa" stroke-width="1.2"/>
  <text x="107" y="112" font-size="10" font-weight="600" fill="#e2e8f0" text-anchor="middle">api/api.js</text>
  <text x="107" y="128" font-size="9" fill="#94a3b8" text-anchor="middle">Axios · JWT headers</text>

  <!-- Pages -->
  <rect x="16" y="152" width="183" height="235" rx="6" fill="#172a45" fill-opacity="0.7" stroke="#3b82f6" stroke-width="1" stroke-dasharray="4,3"/>
  <text x="107" y="170" font-size="10" font-weight="600" fill="#93c5fd" text-anchor="middle">Pages</text>

  <rect x="24" y="178" width="167" height="55" rx="4" fill="#1e3a5f" fill-opacity="0.9" stroke="#3b82f6" stroke-width="1"/>
  <text x="107" y="197" font-size="10" font-weight="600" fill="#bfdbfe" text-anchor="middle">Public</text>
  <text x="107" y="213" font-size="9" fill="#94a3b8" text-anchor="middle">Welcome · Login · Register</text>
  <text x="107" y="226" font-size="8" fill="#475569" text-anchor="middle">Aucune auth requise</text>

  <rect x="24" y="242" width="167" height="65" rx="4" fill="#1e3a5f" fill-opacity="0.9" stroke="#3b82f6" stroke-width="1"/>
  <text x="107" y="261" font-size="10" font-weight="600" fill="#bfdbfe" text-anchor="middle">Utilisateur</text>
  <text x="107" y="277" font-size="9" fill="#94a3b8" text-anchor="middle">Ressources · Réservations</text>
  <text x="107" y="292" font-size="9" fill="#94a3b8" text-anchor="middle">Notifications</text>
  <text x="107" y="302" font-size="8" fill="#475569" text-anchor="middle">JWT requis</text>

  <rect x="24" y="316" width="167" height="62" rx="4" fill="#1e3a5f" fill-opacity="0.9" stroke="#3b82f6" stroke-width="1"/>
  <text x="107" y="335" font-size="10" font-weight="600" fill="#bfdbfe" text-anchor="middle">Admin / Superadmin</text>
  <text x="107" y="351" font-size="9" fill="#94a3b8" text-anchor="middle">Places · Ressources</text>
  <text x="107" y="366" font-size="9" fill="#94a3b8" text-anchor="middle">Réservations · Utilisateurs</text>

  <!-- Auth context -->
  <rect x="22" y="403" width="171" height="44" rx="5" fill="#1d4ed8" fill-opacity="0.5" stroke="#60a5fa" stroke-width="1"/>
  <text x="107" y="421" font-size="10" font-weight="600" fill="#e2e8f0" text-anchor="middle">AuthContext</text>
  <text x="107" y="437" font-size="9" fill="#94a3b8" text-anchor="middle">État JWT · Rôle global</text>

  <!-- Tech note -->
  <rect x="22" y="462" width="171" height="130" rx="5" fill="#0f172a" fill-opacity="0.5" stroke="#334155" stroke-width="1"/>
  <text x="107" y="482" font-size="9" font-weight="600" fill="#475569" text-anchor="middle">3 rôles</text>
  <text x="107" y="498" font-size="9" fill="#334155" text-anchor="middle">user · admin · superadmin</text>
  <line x1="35" y1="505" x2="179" y2="505" stroke="#1e293b" stroke-width="1"/>
  <text x="107" y="520" font-size="9" font-weight="600" fill="#475569" text-anchor="middle">Statuts utilisateur</text>
  <text x="107" y="536" font-size="9" fill="#334155" text-anchor="middle">Actif · En attente · Refusé</text>
  <line x1="35" y1="543" x2="179" y2="543" stroke="#1e293b" stroke-width="1"/>
  <text x="107" y="558" font-size="9" font-weight="600" fill="#475569" text-anchor="middle">Router</text>
  <text x="107" y="574" font-size="9" fill="#334155" text-anchor="middle">React Router DOM</text>

  <!-- ── BACKEND ── -->
  <rect x="225" y="35" width="725" height="575" rx="8" fill="#14532d" fill-opacity="0.25" stroke="#22c55e" stroke-width="2"/>
  <text x="587" y="56" font-size="12" font-weight="bold" fill="#86efac" text-anchor="middle">BACKEND</text>
  <text x="587" y="72" font-size="9" fill="#475569" text-anchor="middle">Go · Echo · GORM · JWT · bcrypt · UUID</text>

  <!-- Routes -->
  <rect x="238" y="82" width="699" height="105" rx="7" fill="#052e16" fill-opacity="0.85" stroke="#16a34a" stroke-width="1.2" stroke-dasharray="5,3"/>
  <text x="372" y="100" font-size="10" font-weight="600" fill="#86efac" text-anchor="middle" font-style="italic">routes/routes.go</text>

  <rect x="248" y="107" width="163" height="68" rx="5" fill="#166534" fill-opacity="0.8" stroke="#4ade80" stroke-width="1"/>
  <text x="329" y="127" font-size="10" font-weight="600" fill="#bbf7d0" text-anchor="middle">Public</text>
  <text x="329" y="143" font-size="9" fill="#86efac" text-anchor="middle">/auth · /companies</text>
  <text x="329" y="158" font-size="9" fill="#86efac" text-anchor="middle">/places · /categories</text>
  <text x="329" y="168" font-size="8" fill="#4ade80" text-anchor="middle">Aucun middleware</text>

  <rect x="420" y="107" width="163" height="68" rx="5" fill="#166534" fill-opacity="0.8" stroke="#4ade80" stroke-width="1"/>
  <text x="501" y="127" font-size="10" font-weight="600" fill="#bbf7d0" text-anchor="middle">Authenticated</text>
  <text x="501" y="143" font-size="9" fill="#86efac" text-anchor="middle">/resources</text>
  <text x="501" y="158" font-size="9" fill="#86efac" text-anchor="middle">/reservation(s)</text>
  <text x="501" y="168" font-size="8" fill="#4ade80" text-anchor="middle">JWT middleware</text>

  <rect x="592" y="107" width="163" height="68" rx="5" fill="#166534" fill-opacity="0.8" stroke="#4ade80" stroke-width="1"/>
  <text x="673" y="127" font-size="10" font-weight="600" fill="#bbf7d0" text-anchor="middle">Admin</text>
  <text x="673" y="143" font-size="9" fill="#86efac" text-anchor="middle">/admin/places · /resources</text>
  <text x="673" y="158" font-size="9" fill="#86efac" text-anchor="middle">/reservations · /users</text>
  <text x="673" y="168" font-size="8" fill="#4ade80" text-anchor="middle">JWT + Role(admin)</text>

  <rect x="764" y="107" width="163" height="68" rx="5" fill="#166534" fill-opacity="0.8" stroke="#4ade80" stroke-width="1"/>
  <text x="845" y="127" font-size="10" font-weight="600" fill="#bbf7d0" text-anchor="middle">Superadmin</text>
  <text x="845" y="143" font-size="9" fill="#86efac" text-anchor="middle">/superadmin/companies</text>
  <text x="845" y="158" font-size="9" fill="#86efac" text-anchor="middle">/superadmin/places</text>
  <text x="845" y="168" font-size="8" fill="#4ade80" text-anchor="middle">JWT + Role(superadmin)</text>

  <!-- Middleware -->
  <rect x="238" y="208" width="228" height="145" rx="7" fill="#052e16" fill-opacity="0.85" stroke="#16a34a" stroke-width="1.2" stroke-dasharray="5,3"/>
  <text x="352" y="227" font-size="10" font-weight="600" fill="#86efac" text-anchor="middle" font-style="italic">middleware/</text>

  <rect x="248" y="235" width="208" height="52" rx="5" fill="#166534" fill-opacity="0.8" stroke="#4ade80" stroke-width="1"/>
  <text x="352" y="255" font-size="10" font-weight="600" fill="#bbf7d0" text-anchor="middle">jwt.go</text>
  <text x="352" y="271" font-size="9" fill="#86efac" text-anchor="middle">Génère · Valide les tokens JWT</text>

  <rect x="248" y="296" width="208" height="47" rx="5" fill="#166534" fill-opacity="0.8" stroke="#4ade80" stroke-width="1"/>
  <text x="352" y="316" font-size="10" font-weight="600" fill="#bbf7d0" text-anchor="middle">role.go</text>
  <text x="352" y="332" font-size="9" fill="#86efac" text-anchor="middle">RBAC · Scope par company</text>

  <!-- Handlers -->
  <rect x="480" y="208" width="452" height="145" rx="7" fill="#052e16" fill-opacity="0.85" stroke="#16a34a" stroke-width="1.2" stroke-dasharray="5,3"/>
  <text x="706" y="227" font-size="10" font-weight="600" fill="#86efac" text-anchor="middle" font-style="italic">handlers/</text>

  <rect x="490" y="235" width="205" height="108" rx="5" fill="#166534" fill-opacity="0.8" stroke="#4ade80" stroke-width="1"/>
  <text x="592" y="256" font-size="9" fill="#bbf7d0" text-anchor="middle">auth_handler</text>
  <text x="592" y="271" font-size="9" fill="#bbf7d0" text-anchor="middle">users_handler</text>
  <text x="592" y="286" font-size="9" fill="#bbf7d0" text-anchor="middle">reservation_handler</text>
  <text x="592" y="301" font-size="9" fill="#bbf7d0" text-anchor="middle">resource_handler</text>
  <text x="592" y="316" font-size="9" fill="#bbf7d0" text-anchor="middle">place_handler</text>

  <rect x="705" y="235" width="217" height="108" rx="5" fill="#166534" fill-opacity="0.8" stroke="#4ade80" stroke-width="1"/>
  <text x="813" y="256" font-size="9" fill="#bbf7d0" text-anchor="middle">category_handler</text>
  <text x="813" y="271" font-size="9" fill="#bbf7d0" text-anchor="middle">company_handler</text>
  <text x="813" y="286" font-size="9" fill="#bbf7d0" text-anchor="middle">notification_handler</text>
  <text x="813" y="301" font-size="9" fill="#bbf7d0" text-anchor="middle">admin_notification_handler</text>
  <text x="813" y="323" font-size="8" fill="#4ade80" text-anchor="middle">9 handlers au total</text>

  <!-- config/database -->
  <rect x="238" y="373" width="699" height="36" rx="5" fill="#052e16" fill-opacity="0.95" stroke="#16a34a" stroke-width="1.3"/>
  <text x="587" y="388" font-size="10" font-weight="600" fill="#86efac" text-anchor="middle">config/database.go</text>
  <text x="587" y="402" font-size="9" fill="#4ade80" text-anchor="middle">PostgreSQL · GORM AutoMigrate · Variables d'environnement</text>

  <!-- Models -->
  <rect x="238" y="422" width="699" height="170" rx="7" fill="#052e16" fill-opacity="0.85" stroke="#16a34a" stroke-width="1.2" stroke-dasharray="5,3"/>
  <text x="370" y="441" font-size="10" font-weight="600" fill="#86efac" text-anchor="middle" font-style="italic">models/ — GORM (9 entités)</text>

  <!-- Model boxes row 1 -->
  <rect x="248" y="450" width="127" height="60" rx="5" fill="#166534" fill-opacity="0.8" stroke="#4ade80" stroke-width="1"/>
  <text x="311" y="470" font-size="10" font-weight="600" fill="#bbf7d0" text-anchor="middle">User</text>
  <text x="311" y="486" font-size="9" fill="#86efac" text-anchor="middle">role · status</text>
  <text x="311" y="502" font-size="8" fill="#4ade80" text-anchor="middle">UUID · password hashé</text>

  <rect x="384" y="450" width="127" height="60" rx="5" fill="#166534" fill-opacity="0.8" stroke="#4ade80" stroke-width="1"/>
  <text x="447" y="470" font-size="10" font-weight="600" fill="#bbf7d0" text-anchor="middle">Reservation</text>
  <text x="447" y="486" font-size="9" fill="#86efac" text-anchor="middle">status · dates</text>
  <text x="447" y="502" font-size="8" fill="#4ade80" text-anchor="middle">pending|approved|rejected</text>

  <rect x="520" y="450" width="127" height="60" rx="5" fill="#166534" fill-opacity="0.8" stroke="#4ade80" stroke-width="1"/>
  <text x="583" y="470" font-size="10" font-weight="600" fill="#bbf7d0" text-anchor="middle">Resource</text>
  <text x="583" y="486" font-size="9" fill="#86efac" text-anchor="middle">name · status</text>
  <text x="583" y="502" font-size="8" fill="#4ade80" text-anchor="middle">placeID · categoryID</text>

  <rect x="656" y="450" width="127" height="60" rx="5" fill="#166534" fill-opacity="0.8" stroke="#4ade80" stroke-width="1"/>
  <text x="719" y="470" font-size="10" font-weight="600" fill="#bbf7d0" text-anchor="middle">Place</text>
  <text x="719" y="486" font-size="9" fill="#86efac" text-anchor="middle">name · description</text>
  <text x="719" y="502" font-size="8" fill="#4ade80" text-anchor="middle">companyID (FK)</text>

  <rect x="792" y="450" width="134" height="60" rx="5" fill="#166534" fill-opacity="0.8" stroke="#4ade80" stroke-width="1"/>
  <text x="859" y="470" font-size="10" font-weight="600" fill="#bbf7d0" text-anchor="middle">Company</text>
  <text x="859" y="486" font-size="9" fill="#86efac" text-anchor="middle">name</text>
  <text x="859" y="502" font-size="8" fill="#4ade80" text-anchor="middle">→ Places</text>

  <!-- Model row 2 -->
  <rect x="248" y="520" width="127" height="58" rx="5" fill="#166534" fill-opacity="0.8" stroke="#4ade80" stroke-width="1"/>
  <text x="311" y="540" font-size="10" font-weight="600" fill="#bbf7d0" text-anchor="middle">Category</text>
  <text x="311" y="556" font-size="9" fill="#86efac" text-anchor="middle">name · UUID</text>
  <text x="311" y="570" font-size="8" fill="#4ade80" text-anchor="middle">→ Resources</text>

  <rect x="384" y="520" width="127" height="58" rx="5" fill="#166534" fill-opacity="0.8" stroke="#4ade80" stroke-width="1"/>
  <text x="447" y="540" font-size="10" font-weight="600" fill="#bbf7d0" text-anchor="middle">Notification</text>
  <text x="447" y="556" font-size="9" fill="#86efac" text-anchor="middle">type · isRead</text>
  <text x="447" y="570" font-size="8" fill="#4ade80" text-anchor="middle">userID (FK)</text>

  <rect x="520" y="520" width="194" height="58" rx="5" fill="#166534" fill-opacity="0.8" stroke="#4ade80" stroke-width="1"/>
  <text x="617" y="540" font-size="10" font-weight="600" fill="#bbf7d0" text-anchor="middle">ReservationResource</text>
  <text x="617" y="556" font-size="9" fill="#86efac" text-anchor="middle">junction table · status</text>
  <text x="617" y="570" font-size="8" fill="#4ade80" text-anchor="middle">reservationID + resourceID</text>

  <rect x="723" y="520" width="203" height="58" rx="5" fill="#166534" fill-opacity="0.8" stroke="#4ade80" stroke-width="1"/>
  <text x="824" y="540" font-size="10" font-weight="600" fill="#bbf7d0" text-anchor="middle">PlaceUser</text>
  <text x="824" y="556" font-size="9" fill="#86efac" text-anchor="middle">junction table</text>
  <text x="824" y="570" font-size="8" fill="#4ade80" text-anchor="middle">placeID + userID</text>

  <!-- ── INFRA ── -->
  <rect x="968" y="45" width="122" height="565" rx="8" fill="#292524" fill-opacity="0.4" stroke="#78716c" stroke-width="2"/>
  <text x="1029" y="66" font-size="12" font-weight="bold" fill="#d6d3d1" text-anchor="middle">INFRA</text>

  <!-- Config (no sensitive details) -->
  <rect x="979" y="78" width="100" height="95" rx="5" fill="#1e3a5f" fill-opacity="0.7" stroke="#60a5fa" stroke-width="1.2"/>
  <text x="1029" y="100" font-size="10" font-weight="600" fill="#bfdbfe" text-anchor="middle">Configuration</text>
  <text x="1029" y="118" font-size="9" fill="#94a3b8" text-anchor="middle">Variables d'env.</text>
  <text x="1029" y="134" font-size="9" fill="#94a3b8" text-anchor="middle">Base de données</text>
  <text x="1029" y="150" font-size="9" fill="#94a3b8" text-anchor="middle">Authentification</text>
  <text x="1029" y="165" font-size="8" fill="#475569" text-anchor="middle">godotenv</text>

  <!-- PostgreSQL cylinder (no credentials) -->
  <rect x="979" y="190" width="100" height="250" rx="5" fill="#7c2d12" fill-opacity="0.6" stroke="#f97316" stroke-width="1.5"/>
  <text x="1029" y="209" font-size="10" font-weight="600" fill="#fed7aa" text-anchor="middle">PostgreSQL</text>
  <ellipse cx="1029" cy="232" rx="42" ry="12" fill="#9a3412" stroke="#fb923c" stroke-width="1.2"/>
  <rect x="987" y="232" width="84" height="110" fill="#9a3412"/>
  <line x1="987" y1="232" x2="987" y2="342" stroke="#fb923c" stroke-width="1.2"/>
  <line x1="1071" y1="232" x2="1071" y2="342" stroke="#fb923c" stroke-width="1.2"/>
  <ellipse cx="1029" cy="342" rx="42" ry="12" fill="#7c2d12" stroke="#fb923c" stroke-width="1.2"/>
  <text x="1029" y="271" font-size="11" font-weight="bold" fill="#fef3c7" text-anchor="middle">Base de</text>
  <text x="1029" y="288" font-size="11" font-weight="bold" fill="#fef3c7" text-anchor="middle">données</text>
  <text x="1029" y="308" font-size="10" fill="#fcd34d" text-anchor="middle">9 tables</text>
  <text x="1029" y="325" font-size="9" fill="#a16207" text-anchor="middle">GORM migrations</text>
  <text x="1029" y="365" font-size="9" fill="#fdba74" text-anchor="middle">UUID · password hashé</text>
  <text x="1029" y="381" font-size="9" fill="#94a3b8" text-anchor="middle">CreatedAt · UpdatedAt</text>
  <text x="1029" y="397" font-size="8" fill="#94a3b8" text-anchor="middle">Soft delete (GORM)</text>
  <text x="1029" y="430" font-size="8" fill="#475569" text-anchor="middle">Serveur local</text>

  <!-- cmd/seed -->
  <rect x="979" y="457" width="100" height="140" rx="5" fill="#3b0764" fill-opacity="0.65" stroke="#a855f7" stroke-width="1.2"/>
  <text x="1029" y="477" font-size="10" font-weight="600" fill="#e9d5ff" text-anchor="middle">cmd/seed</text>
  <text x="1029" y="494" font-size="9" fill="#c4b5fd" text-anchor="middle">Seed script</text>
  <text x="1029" y="510" font-size="8" fill="#94a3b8" text-anchor="middle">go run</text>
  <text x="1029" y="524" font-size="8" fill="#94a3b8" text-anchor="middle">cmd/seed/main.go</text>
  <line x1="990" y1="534" x2="1068" y2="534" stroke="#4c1d95" stroke-width="1"/>
  <text x="1029" y="548" font-size="8" fill="#475569" text-anchor="middle">Données de test</text>
  <text x="1029" y="562" font-size="8" fill="#475569" text-anchor="middle">Companies · Places</text>
  <text x="1029" y="576" font-size="8" fill="#475569" text-anchor="middle">Users · Resources</text>

  <!-- ══ ARROWS ══ -->
  <line x1="205" y1="192" x2="225" y2="192" stroke="#60a5fa" stroke-width="2" marker-end="url(#arr-b)"/>
  <text x="215" y="185" font-size="7" fill="#60a5fa" text-anchor="middle">HTTP</text>
  <text x="215" y="204" font-size="7" fill="#60a5fa" text-anchor="middle">+JWT</text>

  <line x1="352" y1="187" x2="352" y2="208" stroke="#4ade80" stroke-width="1.5" marker-end="url(#arr-g)"/>
  <line x1="706" y1="187" x2="706" y2="208" stroke="#4ade80" stroke-width="1.5" marker-end="url(#arr-g)"/>
  <line x1="466" y1="280" x2="480" y2="280" stroke="#4ade80" stroke-width="1.5" marker-end="url(#arr-g)"/>
  <line x1="587" y1="353" x2="587" y2="373" stroke="#4ade80" stroke-width="1.5" marker-end="url(#arr-g)"/>
  <line x1="587" y1="409" x2="587" y2="422" stroke="#4ade80" stroke-width="1.5" marker-end="url(#arr-g)"/>

  <line x1="937" y1="490" x2="968" y2="330" stroke="#fb923c" stroke-width="1.8" stroke-dasharray="5,3" marker-end="url(#arr-o)"/>
  <text x="955" y="415" font-size="8" fill="#fb923c" text-anchor="middle" transform="rotate(-65,955,415)">GORM</text>

  <line x1="1029" y1="457" x2="1029" y2="440" stroke="#a855f7" stroke-width="1.5" stroke-dasharray="4,3" marker-end="url(#arr)"/>
</svg>
